<svg version="1.1" xmlns="http://www.w3.org/2000/svg" viewBox="-19.329636514511638 -1.7498370401025678 53.65624754735549 3.7497270095048822" fill="none" stroke="black" stroke-width="0.6%" vector-effect="non-scaling-stroke">
    <path d="M -0.55911 0.99244 L -0.55911 -0.00745 L 0 0 L 33.32661 -0.55567 L 32.7675 -0.56313 L -0.55911 -0.00745" />
    <path d="M 0 0.99989 L 0 0" />
    <path d="M -0.55911 0.99244 L 0 0.99989 L 33.32661 0.44422 L 33.32661 -0.55567" />
    <path d="M -8.54096 -0.64368 L -8.54096 -0.66378 L -10.10264 -0.73459 L -14.99697 -0.74984 L -18.32964 -0.69427 L -16.76796 -0.62346 L -11.87362 -0.60822 L -8.54096 -0.66378" />
    <path d="M -18.32964 0.30562 L -18.32964 -0.69427" />
    <path d="M -16.76796 0.37643 L -16.76796 -0.62346" />
    <path d="M -18.32964 0.30562 L -16.76796 0.37643 L -11.87362 0.39167 L -10.98054 0.37678" />
    <path d="M -11.87362 0.39167 L -11.87362 -0.60822" />
    <path d="M -9.70792 -0.62934 A 5 0.07454 360 0 1 -0.98054 -0.57966 L -0.98054 0.42023" />
    <path d="M -0.98054 -0.57966 A 5 0.07454 360 0 1 -10.98054 -0.57966 L -10.98054 0.42023 A 5 0.07454 180 0 0 -0.98054 0.42023" />
    <path d="M -10.98054 -0.57966 A 5 0.07454 360 0 1 -9.70792 -0.62934" />
</svg>