<svg version="1.1" xmlns="http://www.w3.org/2000/svg" viewBox="-19.354505327744477 -9.239203671004049 50.70726206646463 20.615340340039204" fill="none" stroke="black" stroke-width="0.6%" vector-effect="non-scaling-stroke">
    <path d="M 8.48693 -3.92322 A 2.5 0.40932 360 0 1 12.68432 -3.6227 A 2.5 0.40932 360 0 1 7.68432 -3.6227 A 2.5 0.40932 360 0 1 8.48693 -3.92322 Z" />
    <path d="M 7.68432 -2.6362 A 2.5 0.40932 180 0 0 12.68432 -2.6362" />
    <path d="M -8.80368 3.26427 L -8.80368 2.27777 L -9.90819 1.47936 L -14.6836 1.23676 L -18.3545 1.79258 L -17.24999 2.59099 L -12.47458 2.83358 L -8.80368 2.27777" />
    <path d="M -18.3545 2.77908 L -18.3545 1.79258" />
    <path d="M -17.24999 3.57749 L -17.24999 2.59099" />
    <path d="M -18.3545 2.77908 L -17.24999 3.57749 L -12.47458 3.82009 L -8.80368 3.26427" />
    <path d="M -12.47458 3.82009 L -12.47458 2.83358" />
    <path d="M -15.27648 -8.1304 A 2.5 0.40932 360 0 1 -11.07909 -7.82988 L -11.07909 -6.84338" />
    <path d="M -11.07909 -7.82988 A 2.5 0.40932 360 0 1 -16.07909 -7.82988 L -16.07909 -6.84338 A 2.5 0.40932 180 0 0 -11.07909 -6.84338" />
    <path d="M -16.07909 -7.82988 A 2.5 0.40932 360 0 1 -15.27648 -8.1304" />
    <path d="M 18.3545 7.08597 L 17.34565 6.35671 L 30.35276 4.38728 L 29.84354 4.29713 L 16.83643 6.26655 L 12.47458 6.04497 L 8.80368 6.60078 L 9.81254 7.33005 L -3.19457 9.29948 L -2.68535 9.38963 L 10.32176 7.42021 L 14.6836 7.64179 L 18.3545 7.08597 Z" />
    <path d="M 18.3545 8.07248 L 18.3545 7.08597" />
    <path d="M 18.3545 7.19046 L 30.35276 5.37379 L 30.35276 4.38728" />
    <path d="M -3.19457 10.28598 L -2.68535 10.37614 L -2.68535 9.38963" />
    <path d="M -2.68535 10.37614 L 10.32176 8.40671 L 10.32176 7.42021" />
    <path d="M 10.32176 8.40671 L 14.6836 8.6283 L 14.6836 7.64179" />
    <path d="M 14.6836 8.6283 L 18.3545 8.07248" />
    <path d="M 8.80368 7.4828 L 8.80368 6.60078" />
    <path d="M -3.19457 10.28598 L -3.19457 9.29948" />
    <path d="M 7.68432 -3.6227 L 7.68432 -2.6362" />
    <path d="M 12.68432 -3.6227 L 12.68432 -2.6362" />
</svg>