<svg version="1.1" xmlns="http://www.w3.org/2000/svg" viewBox="-17.29330808261381 -9.676955453690184 49.328328948833416 22.628352710046993" fill="none" stroke="black" stroke-width="0.6%" vector-effect="non-scaling-stroke">
    <path d="M -11.80951 -6.04931 A 2.5 1.70594 59.07778 0 1 -12.43417 -4.21538 A 2.5 1.70594 59.07778 0 1 -15.44307 -6.01148 L -15.53941 -6.10754 L -15.63031 -6.20435 L -15.71551 -6.30163 L -15.79473 -6.39908 L -15.86776 -6.49642 L -15.93436 -6.59334 L -15.99434 -6.68957 L -16.04752 -6.78482 L -16.09374 -6.8788 L -16.13287 -6.97122 L -16.16479 -7.06182 L -16.18939 -7.15032 L -16.20661 -7.23647 L -16.2164 -7.31999 A 2.5 1.70594 239.07778 0 0 -13.06127 -3.83974 L -12.43417 -4.21538" />
    <path d="M -12.65069 -7.77654 A 2.5 0.48136 0 0 1 -11.21886 -7.34133 A 2.5 0.48136 0 0 1 -16.2164 -7.31999 A 2.5 0.48136 360 0 1 -16.21886 -7.34133 L -16.21886 -7.31131" />
    <path d="M -15.44307 -6.01148 A 2.5 0.48136 180 0 0 -11.21886 -6.36004" />
    <path d="M -15.6662 -7.10885 L -15.71474 -7.12413 L -15.76193 -7.1394 L -15.80775 -7.15467 L -15.85218 -7.16991 L -15.89521 -7.18513 L -15.93681 -7.20032 L -15.97697 -7.21548 L -16.01567 -7.23059 L -16.0529 -7.24565 L -16.08864 -7.26065 L -16.12287 -7.27559 L -16.15558 -7.29047 L -16.18677 -7.30527 L -16.2164 -7.31999" />
    <path d="M -12.60766 -7.72715 L -15.6662 -7.10885 A 2.5 1.70594 59.07778 0 1 -15.00354 -8.50471 A 2.5 1.70594 59.07778 0 1 -12.60766 -7.72715 Z" />
    <path d="M -16.21886 -7.34133 A 2.5 0.48136 360 0 1 -16.184 -7.42143" />
    <path d="M -15.63064 -8.12906 A 2.5 1.70594 239.07778 0 0 -16.2164 -7.31999" />
    <path d="M -0.54376 11.8518 L -0.54376 10.87051 L -0.00068 10.97011 L 31.03502 4.69608 L 30.49194 4.59649 L -0.54376 10.87051" />
    <path d="M -0.00068 11.9514 L -0.00068 10.97011" />
    <path d="M -0.54376 11.8518 L -0.00068 11.9514 L 31.03502 5.67737 L 31.03502 4.69608" />
    <path d="M -11.21886 -7.34133 L -11.21886 -6.36004" />
    <path d="M -15.63064 -8.12906 L -15.00354 -8.50471" />
</svg>