<svg version="1.1" xmlns="http://www.w3.org/2000/svg" viewBox="-10.369991665217722 -5.212137517260424 18.983160825973485 15.580917331715149" fill="none" stroke="black" stroke-width="0.6%" vector-effect="non-scaling-stroke">
    <path d="M 0.59785 6.25551 L 0.59785 -2.78347 L -2.24111 -4.21214 L -7.22503 -4.07305 L -9.36999 -2.5053 L -6.53103 -1.07663 L -1.54711 -1.21571 L 0.59785 -2.78347" />
    <path d="M -9.36999 6.87293 L -9.36999 -2.5053" />
    <path d="M -6.53103 8.3016 L -6.53103 -1.07663" />
    <path d="M -9.36999 6.87293 L -6.53103 8.3016 L -2.0297 8.17599" />
    <path d="M -1.54711 7.82326 L -1.54711 -1.21571" />
    <path d="M 2.25827 -0.56555 L 0.59785 -0.168" />
    <path d="M 3.05963 3.83225 L 3.05963 2.89442 L 7.17549 1.90898 L 6.77481 0.17899 L 2.25827 -0.56555" />
    <path d="M 0.59785 3.42642 L 3.05963 3.83225 L 4.32916 3.52829" />
    <path d="M 0.59785 2.4886 L 3.05963 2.89442" />
    <path d="M 7.17549 2.8468 L 7.17549 1.90898" />
    <path d="M 6.30337 3.05561 L 7.17549 2.8468" />
    <path d="M -2.20017 9.00395 L -1.29686 9.15286 L -0.89038 8.85576" />
    <path d="M 5.40007 2.74556 L 6.30337 2.89447 L -1.29686 8.44949 L -1.20398 8.73329 L -1.29686 9.15286" />
    <path d="M 6.30337 3.25858 L 6.30337 2.89447" />
    <path d="M -2.20017 8.30059 L -1.29686 8.44949" />
    <path d="M 5.40007 2.74556 L -2.20017 8.30059 L -2.10729 8.58438 L -2.20017 9.00395" />
    <path d="M -2.10729 8.58438 L -1.20398 8.73329" />
    <path d="M 0.01293 9.36878 L -0.89038 9.21987 L -0.89038 8.5165 L 6.70986 2.96148" />
    <path d="M 7.61317 3.81376 L 0.01293 9.36878 L 0.01293 8.66541 L 7.61317 3.11039 L 7.52029 3.52996 L 7.61317 3.81376 Z" />
    <path d="M 0.01293 8.66541 L -0.89038 8.5165" />
    <path d="M 7.61317 3.11039 L 6.70986 2.96148" />
</svg>