<svg version="1.1" xmlns="http://www.w3.org/2000/svg" viewBox="-19.354505327744477 -9.239203671004049 50.70726206646463 20.615340340039204" fill="none" stroke="black" stroke-width="0.6%" vector-effect="non-scaling-stroke">
    <path d="M -8.80368 3.26427 L -8.80368 -6.60078 L -9.90819 -7.3992 L -11.07909 -7.45868" />
    <path d="M -12.47458 3.82009 L -12.47458 -6.04497 L -8.80368 -6.60078" />
    <path d="M -12.47458 3.82009 L -8.80368 3.26427" />
    <path d="M -18.3545 2.77908 L -17.24999 3.57749 L -17.24999 -6.28756 L -12.47458 -6.04497" />
    <path d="M -17.24999 3.57749 L -12.47458 3.82009" />
    <path d="M -16.07909 -7.4305 L -18.3545 -7.08597 L -17.24999 -6.28756" />
    <path d="M -16.07909 -6.84338 A 2.5 0.40932 180 0 0 -11.07909 -6.84338" />
    <path d="M -18.3545 2.77908 L -18.3545 -7.08597" />
    <path d="M -15.27648 -8.1304 A 2.5 0.40932 360 0 1 -11.07909 -7.82988 A 2.5 0.40932 360 0 1 -16.07909 -7.82988 A 2.5 0.40932 360 0 1 -15.27648 -8.1304 Z" />
    <path d="M 11.88171 -3.32219 A 2.5 0.40932 360 0 1 16.07909 -3.02168 A 2.5 0.40932 360 0 1 11.07909 -3.02168 L 11.07909 -2.03517 A 2.5 0.40932 180 0 0 16.07909 -2.03517" />
    <path d="M 11.07909 -3.02168 A 2.5 0.40932 360 0 1 11.88171 -3.32219" />
    <path d="M 30.35276 5.37379 L 30.35276 4.38728 L 29.84354 4.29713 L 16.83643 6.26655 L 12.47458 6.04497 L 8.80368 6.60078 L 9.81254 7.33005 L -3.19457 9.29948 L -2.68535 9.38963 L 10.32176 7.42021 L 14.6836 7.64179 L 18.3545 7.08597 L 17.34565 6.35671 L 30.35276 4.38728" />
    <path d="M 18.3545 7.19046 L 30.35276 5.37379" />
    <path d="M 18.3545 8.07248 L 18.3545 7.08597" />
    <path d="M -3.19457 10.28598 L -2.68535 10.37614 L -2.68535 9.38963" />
    <path d="M -2.68535 10.37614 L 10.32176 8.40671 L 10.32176 7.42021" />
    <path d="M 10.32176 8.40671 L 14.6836 8.6283 L 14.6836 7.64179" />
    <path d="M 14.6836 8.6283 L 18.3545 8.07248" />
    <path d="M 11.88171 6.54287 A 2.5 0.40932 360 0 1 16.07909 6.84338 A 2.5 0.40932 360 0 1 11.07909 6.84338 A 2.5 0.40932 360 0 1 11.88171 6.54287 Z" />
    <path d="M 8.80368 7.4828 L 8.80368 6.60078" />
    <path d="M -3.19457 10.28598 L -3.19457 9.29948" />
    <path d="M -16.07909 -7.82988 L -16.07909 -6.84338" />
    <path d="M -11.07909 -7.82988 L -11.07909 -6.84338" />
    <path d="M 16.07909 -3.02168 L 16.07909 -2.03517" />
</svg>