<svg version="1.1" xmlns="http://www.w3.org/2000/svg" viewBox="-15.815978147498905 -1.716230679146174 42.256515322986445 3.673011898538701" fill="none" stroke="black" stroke-width="0.6%" vector-effect="non-scaling-stroke">
    <path d="M 15.83402 -0.33265 L 14.21959 -0.4061 L 25.44054 -0.64184 L 24.86014 -0.65001 L 13.6392 -0.41427 L 9.13223 -0.42696 L 5.96542 -0.36043 L 7.57985 -0.28697 L -3.64109 -0.05124 L -3.0607 -0.04307 L 8.16024 -0.27881 L 12.66722 -0.26612 L 15.83402 -0.33265 Z" />
    <path d="M 15.83402 0.6672 L 15.83402 -0.33265" />
    <path d="M 15.83402 0.55983 L 25.44054 0.35801 L 25.44054 -0.64184" />
    <path d="M -3.64109 0.94861 L -3.0607 0.95678 L 8.16024 0.72105 L 12.66722 0.73373 L 15.83402 0.6672" />
    <path d="M 12.66722 0.73373 L 12.66722 -0.26612" />
    <path d="M 5.96542 -0.25306 L 5.96542 -0.36043" />
    <path d="M 8.16024 0.72105 L 8.16024 -0.27881" />
    <path d="M -3.64109 0.94861 L -3.64109 -0.05124" />
    <path d="M -3.0607 0.95678 L -3.0607 -0.04307" />
    <path d="M -14.25062 -0.70047 A 2.5 0.04299 0 0 1 -9.81598 -0.67324 L -9.81598 0.32661" />
    <path d="M -9.81598 -0.67324 A 2.5 0.04299 0 1 1 -14.81598 -0.67324 L -14.81598 0.32661 A 2.5 0.04299 180 1 0 -9.81598 0.32661" />
    <path d="M -14.81598 -0.67324 A 2.5 0.04299 0 0 1 -14.25062 -0.70047" />
</svg>