<svg version="1.1" xmlns="http://www.w3.org/2000/svg" viewBox="-17.28492665421366 -9.680603294323364 49.32622161467006 22.61708296452074" fill="none" stroke="black" stroke-width="0.6%" vector-effect="non-scaling-stroke">
    <path d="M -16.20792 -7.32398 A 2.5 0.48067 0 0 1 -16.21036 -7.3452 A 2.5 0.48067 0 0 1 -16.17563 -7.42504" />
    <path d="M -16.20792 -7.32398 A 2.5 1.70598 239.06185 0 0 -13.05207 -3.84374 L -12.42508 -4.21955 A 2.5 1.70598 59.06185 0 1 -15.43492 -6.01587 A 2.5 0.48067 180 0 0 -11.21036 -6.36386" />
    <path d="M -11.80089 -6.0536 A 2.5 1.70598 59.06185 0 1 -12.42508 -4.21955" />
    <path d="M -16.20792 -7.32398 L -16.19816 -7.24049 L -16.18097 -7.15439 L -16.15639 -7.06592 L -16.1245 -6.97535 L -16.0854 -6.88295 L -16.0392 -6.78901 L -15.98604 -6.69379 L -15.92608 -6.59759 L -15.8595 -6.50069 L -15.7865 -6.40338 L -15.7073 -6.30595 L -15.62213 -6.20869 L -15.53124 -6.1119 L -15.43492 -6.01587" />
    <path d="M -15.62263 -8.13236 A 2.5 1.70598 239.06185 0 0 -16.20792 -7.32398" />
    <path d="M -12.64174 -7.77975 A 2.5 0.48067 360 0 1 -11.21036 -7.3452 A 2.5 0.48067 360 0 1 -16.20792 -7.32398" />
    <path d="M -15.65793 -7.11313 L -15.70646 -7.12839 L -15.75363 -7.14364 L -15.79944 -7.15888 L -15.84385 -7.17411 L -15.88687 -7.18931 L -15.92845 -7.20448 L -15.9686 -7.21961 L -16.00728 -7.2347 L -16.0445 -7.24974 L -16.08022 -7.26473 L -16.11444 -7.27965 L -16.14714 -7.2945 L -16.1783 -7.30928 L -16.20792 -7.32398" />
    <path d="M -15.65793 -7.11313 A 2.5 1.70598 59.06185 0 1 -14.99564 -8.50817 A 2.5 1.70598 59.06185 0 1 -12.59877 -7.73043" />
    <path d="M -15.65793 -7.11313 L -12.59877 -7.73043" />
    <path d="M -0.54366 11.83701 L -0.54366 10.85566 L -0.00067 10.95514 L 31.04129 4.69122 L 30.49831 4.59175 L -0.54366 10.85566" />
    <path d="M -0.00067 11.93648 L -0.00067 10.95514" />
    <path d="M -0.54366 11.83701 L -0.00067 11.93648 L 31.04129 5.67257 L 31.04129 4.69122" />
    <path d="M -16.21036 -7.3452 L -16.21036 -7.31539" />
    <path d="M -11.21036 -7.3452 L -11.21036 -6.36386" />
    <path d="M -15.62263 -8.13236 L -14.99564 -8.50817" />
</svg>