<svg version="1.1" xmlns="http://www.w3.org/2000/svg" viewBox="-3.586202039889587 -3.700185598879541 7.086805530980245 7.0559628605566065" fill="none" stroke="black" stroke-width="0.6%" vector-effect="non-scaling-stroke">
    <path d="M 1.8632 0.73712 A 2.5 1.96513 83.75018 0 1 0.27276 2.27929 A 2.5 1.96513 83.75018 0 1 -1.76104 0.79724 L -1.85534 0.67626 L -1.94409 0.55264 L -2.02703 0.42675 L -2.10391 0.29898 L -2.17451 0.16969 L -2.2386 0.03929 L -2.29601 -0.09185 L -2.34655 -0.22333 L -2.39008 -0.35476 L -2.42646 -0.48574 L -2.45559 -0.61589 L -2.47738 -0.74481 L -2.49177 -0.87212 L -2.49871 -0.99744 A 2.5 1.96513 263.75018 0 0 -0.34173 2.34659 L 0.27276 2.27929" />
    <path d="M 0.92632 -2.34383 A 2.5 1.4137 0 0 1 2.5006 -1.03061 A 2.5 1.4137 0 0 1 -2.49871 -0.99744 A 2.5 1.4137 360 0 1 -2.4994 -1.03061 L -2.4994 -0.99466" />
    <path d="M -1.76104 0.79724 A 2.5 1.4137 180 0 0 2.5006 -0.20585" />
    <path d="M -1.97153 -0.37098 L -2.0184 -0.41642 L -2.06392 -0.46183 L -2.10808 -0.50719 L -2.15085 -0.55248 L -2.19221 -0.59768 L -2.23216 -0.64277 L -2.27067 -0.68774 L -2.30772 -0.73256 L -2.34331 -0.77722 L -2.37741 -0.8217 L -2.41001 -0.86598 L -2.44111 -0.91005 L -2.47068 -0.95387 L -2.49871 -0.99744" />
    <path d="M 1.15342 -2.15036 L -1.97153 -0.37098 A 2.5 1.96513 83.75018 0 1 -0.27156 -2.69099 A 2.5 1.96513 83.75018 0 1 1.15342 -2.15036 Z" />
    <path d="M -2.4994 -1.03061 A 2.5 1.4137 360 0 1 -2.23765 -1.66037" />
    <path d="M -0.88604 -2.6237 A 2.5 1.96513 263.75018 0 0 -2.49871 -0.99744" />
    <path d="M 2.5006 -1.03061 L 2.5006 -0.20585" />
    <path d="M -0.88604 -2.6237 L -0.27156 -2.69099" />
</svg>