<svg version="1.1" xmlns="http://www.w3.org/2000/svg" viewBox="-18.619466428660985 -1.776221444389531 51.33450520062265 3.776098296838513" fill="none" stroke="black" stroke-width="0.6%" vector-effect="non-scaling-stroke">
    <path d="M -0.53207 0.99154 L -0.53207 -0.00833 L 0 0 L 31.71504 -0.50322 L 31.18297 -0.51156 L -0.53207 -0.00833" />
    <path d="M 0 0.99988 L 0 0" />
    <path d="M -0.53207 0.99154 L 0 0.99988 L 31.71504 0.49665 L 31.71504 -0.50322" />
    <path d="M -7.95175 -0.6059 L -7.95175 -0.68001 L -9.26172 -0.75607 L -14.09557 -0.77622 L -17.61947 -0.72031 L -16.3095 -0.64424 L -11.47564 -0.6241 L -7.95175 -0.68001" />
    <path d="M -17.61947 0.27957 L -17.61947 -0.72031" />
    <path d="M -16.3095 0.35563 L -16.3095 -0.64424" />
    <path d="M -17.61947 0.27957 L -16.3095 0.35563 L -11.47564 0.37578 L -8.19134 0.32367" />
    <path d="M -11.47564 0.37578 L -11.47564 -0.6241" />
    <path d="M -7.4649 -0.61684 A 2.5 0.03941 360 0 1 -3.19134 -0.58906 L -3.19134 0.41081" />
    <path d="M -3.19134 -0.58906 A 2.5 0.03941 360 1 1 -8.19134 -0.58906 L -8.19134 0.41081 A 2.5 0.03941 180 0 0 -3.19134 0.41081" />
    <path d="M -8.19134 -0.58906 A 2.5 0.03941 360 0 1 -7.4649 -0.61684" />
</svg>