<svg version="1.1" xmlns="http://www.w3.org/2000/svg" viewBox="-19.354505327744477 -8.641792189812048 50.70726206646463 20.017928858847206" fill="none" stroke="black" stroke-width="0.6%" vector-effect="non-scaling-stroke">
    <path d="M -8.80368 3.26427 L -8.80368 -5.39885" />
    <path d="M -9.07209 -6.7948 L -9.90819 -7.3992 L -14.6836 -7.64179 L -18.3545 -7.08597 L -17.24999 -6.28756 L -12.47458 -6.04497 L -9.28955 -6.52722" />
    <path d="M -18.3545 2.77908 L -18.3545 -7.08597" />
    <path d="M -17.24999 3.57749 L -17.24999 -6.28756" />
    <path d="M -18.3545 2.77908 L -17.24999 3.57749 L -12.47458 3.82009 L -8.80368 3.26427" />
    <path d="M -12.47458 3.82009 L -12.47458 -6.04497" />
    <path d="M -8.48693 -6.92835 A 2.5 0.40932 360 0 1 -4.28955 -6.62783 A 2.5 0.40932 360 0 1 -9.28955 -6.62783 L -9.28955 -5.64133 A 2.5 0.40932 180 0 0 -4.28955 -5.64133" />
    <path d="M -9.28955 -6.62783 A 2.5 0.40932 360 0 1 -8.48693 -6.92835" />
    <path d="M 18.3545 7.08597 L 17.34565 6.35671 L 30.35276 4.38728 L 29.84354 4.29713 L 16.83643 6.26655 L 12.47458 6.04497 L 8.80368 6.60078 L 9.81254 7.33005 L -3.19457 9.29948 L -2.68535 9.38963 L 10.32176 7.42021 L 14.6836 7.64179 L 18.3545 7.08597 Z" />
    <path d="M 18.3545 8.07248 L 18.3545 7.08597" />
    <path d="M 18.3545 7.19046 L 30.35276 5.37379 L 30.35276 4.38728" />
    <path d="M -3.19457 10.28598 L -2.68535 10.37614 L -2.68535 9.38963" />
    <path d="M -2.68535 10.37614 L 10.32176 8.40671 L 10.32176 7.42021" />
    <path d="M 10.32176 8.40671 L 14.6836 8.6283 L 14.6836 7.64179" />
    <path d="M 14.6836 8.6283 L 18.3545 8.07248" />
    <path d="M 8.80368 7.4828 L 8.80368 6.60078" />
    <path d="M -3.19457 10.28598 L -3.19457 9.29948" />
    <path d="M -4.28955 -6.62783 L -4.28955 -5.64133" />
</svg>