<svg version="1.1" xmlns="http://www.w3.org/2000/svg" viewBox="-19.354995977410265 -9.24570675393983 50.70774306341193 20.633698693853983" fill="none" stroke="black" stroke-width="0.6%" vector-effect="non-scaling-stroke">
    <path d="M 8.48721 -3.91918 A 2.5 0.41033 0 0 1 12.68465 -3.61794 A 2.5 0.41033 0 0 1 7.68465 -3.61794 A 2.5 0.41033 0 0 1 8.48721 -3.91918 Z" />
    <path d="M 7.68465 -2.6315 A 2.5 0.41033 180 0 0 12.68465 -2.6315" />
    <path d="M -8.80408 3.25862 L -8.80408 -6.60577 L -9.90874 -7.40615 L -11.07954 -7.46576" />
    <path d="M -12.47488 3.81582 L -12.47488 -6.04856 L -8.80408 -6.60577" />
    <path d="M -12.47488 3.81582 L -8.80408 3.25862" />
    <path d="M -18.35499 2.77228 L -17.25034 3.57265 L -17.25034 -6.29173 L -12.47488 -6.04856" />
    <path d="M -17.25034 3.57265 L -12.47488 3.81582" />
    <path d="M -16.07954 -7.43751 L -18.35499 -7.09211 L -17.25034 -6.29173" />
    <path d="M -16.07954 -6.84894 A 2.5 0.41033 180 0 0 -11.07954 -6.84894" />
    <path d="M -18.35499 2.77228 L -18.35499 -7.09211" />
    <path d="M -15.27698 -8.13662 A 2.5 0.41033 0 0 1 -11.07954 -7.83538 L -11.07954 -6.84894" />
    <path d="M -11.07954 -7.83538 A 2.5 0.41033 0 0 1 -16.07954 -7.83538 L -16.07954 -6.84894" />
    <path d="M -16.07954 -7.83538 A 2.5 0.41033 0 0 1 -15.27698 -8.13662" />
    <path d="M 30.35275 5.37314 L 30.35275 4.3867 L 29.84351 4.29633 L 16.83677 6.27067 L 12.47488 6.04856 L 8.80408 6.60577 L 9.81308 7.33683 L -3.19367 9.31118 L -2.68443 9.40155 L 10.32231 7.4272 L 14.6842 7.64932 L 18.35499 7.09211 L 17.346 6.36105 L 30.35275 4.3867" />
    <path d="M 18.35499 7.19433 L 30.35275 5.37314" />
    <path d="M 18.35499 8.07855 L 18.35499 7.09211" />
    <path d="M -3.19367 10.29762 L -2.68443 10.38799 L -2.68443 9.40155" />
    <path d="M -2.68443 10.38799 L 10.32231 8.41364 L 10.32231 7.4272" />
    <path d="M 10.32231 8.41364 L 14.6842 8.63575 L 14.6842 7.64932" />
    <path d="M 14.6842 8.63575 L 18.35499 8.07855" />
    <path d="M 8.80408 7.48999 L 8.80408 6.60577" />
    <path d="M -3.19367 10.29762 L -3.19367 9.31118" />
    <path d="M 7.68465 -3.61794 L 7.68465 -2.6315" />
    <path d="M 12.68465 -3.61794 L 12.68465 -2.6315" />
</svg>