<svg version="1.1" xmlns="http://www.w3.org/2000/svg" viewBox="-33.15900985777524 -12.76868779411169 65.61925157721625 23.460599462199397" fill="none" stroke="black" stroke-width="0.6%" vector-effect="non-scaling-stroke">
    <path d="M 9.79409 -5.86757 A 2.5 0.56955 0 0 1 14.02882 -5.45745 A 2.5 0.56955 0 0 1 9.02882 -5.45745 A 2.5 0.56955 0 0 1 9.79409 -5.86757 Z" />
    <path d="M 9.02882 -4.48375 A 2.5 0.56955 180 0 0 14.02882 -4.48375" />
    <path d="M -7.95262 -0.17326 L -7.95262 -1.14696 L -9.15708 -2.25252 L -13.96192 -2.56766 L -17.56231 -1.77725 L -16.35785 -0.67169 L -11.55301 -0.35655 L -7.95262 -1.14696" />
    <path d="M -17.56231 -0.80354 L -17.56231 -1.77725" />
    <path d="M -16.35785 0.30201 L -16.35785 -0.67169" />
    <path d="M -17.56231 -0.80354 L -16.35785 0.30201 L -11.55301 0.61716 L -7.95262 -0.17326" />
    <path d="M -11.55301 0.61716 L -11.55301 -0.35655" />
    <path d="M -14.4922 -11.60926 A 2.5 0.56955 0 0 1 -10.25747 -11.19914 A 2.5 0.56955 0 0 1 -15.25747 -11.19914 A 2.5 0.56955 0 0 1 -14.4922 -11.60926 Z" />
    <path d="M -15.25747 -10.22543 A 2.5 0.56955 180 0 0 -10.25747 -10.22543" />
    <path d="M 19.80314 5.41496 L 18.70299 4.40515 L 31.46024 1.60447 L 30.93982 1.48143 L 18.18257 4.28211 L 13.79384 3.99426 L 10.19345 4.78468 L 11.2936 5.79449 L -1.46365 8.59517 L -0.94323 8.71821 L 11.81402 5.91753 L 16.20275 6.20538 L 19.80314 5.41496 Z" />
    <path d="M 19.80314 6.38867 L 19.80314 5.41496" />
    <path d="M 19.55905 5.19092 L 31.46024 2.57817 L 31.46024 1.60447" />
    <path d="M 10.19345 5.75838 L 10.43754 5.98243" />
    <path d="M -1.46365 9.56887 L -0.94323 9.69191 L -0.94323 8.71821" />
    <path d="M -0.94323 9.69191 L 11.81402 6.89123 L 11.81402 5.91753" />
    <path d="M 11.81402 6.89123 L 16.20275 7.17908 L 16.20275 6.20538" />
    <path d="M 16.20275 7.17908 L 19.80314 6.38867" />
    <path d="M 10.19345 5.75838 L 10.19345 4.78468" />
    <path d="M -1.46365 9.56887 L -1.46365 8.59517" />
    <path d="M -26.00864 -2.19261 A 5 3.50571 283.30145 0 0 -30.68665 2.474" />
    <path d="M -29.99276 2.63805 L -30.68665 2.474" />
    <path d="M -29.99276 2.63805 A 5 3.50571 103.30145 0 1 -25.31474 -2.02856 L -26.00864 -2.19261" />
    <path d="M -25.31474 -2.02856 A 5 3.50571 103.30145 0 1 -22.93747 1.08916 L -29.99276 2.63805 L -29.99276 3.61175 A 5 1.1391 180 0 0 -22.15901 2.67326" />
    <path d="M -30.22752 0.80019 A 5 1.1391 180 0 0 -32.15901 1.69956 L -32.15901 2.67326 A 5 1.1391 180 0 0 -30.75939 3.46368 A 5 3.50571 283.30145 0 0 -28.30938 7.53913" />
    <path d="M -32.15901 1.69956 A 5 1.1391 180 0 0 -29.99276 2.63805 A 5 1.1391 180 0 0 -22.15901 1.69956 L -22.15901 2.67326" />
    <path d="M -30.75939 3.46368 L -30.70912 3.40537 L -30.65812 3.34691 L -30.60639 3.28832 L -30.55395 3.2296 L -30.5008 3.17076 L -30.44697 3.11182 L -30.39245 3.05278 L -30.33727 2.99367 L -30.28142 2.9345 L -30.22493 2.87527 L -30.16781 2.816 L -30.11007 2.75669 L -30.05171 2.69737 L -29.99276 2.63805" />
    <path d="M -22.15901 1.69956 A 5 1.1391 180 0 0 -22.93747 1.08916" />
    <path d="M -22.98087 3.29896 A 5 3.50571 103.30145 0 1 -27.61549 7.70317 L -28.30938 7.53913" />
    <path d="M -27.61549 7.70317 A 5 3.50571 103.30145 0 1 -29.99276 2.63805" />
    <path d="M 9.02882 -5.45745 L 9.02882 -4.48375" />
    <path d="M 14.02882 -5.45745 L 14.02882 -4.48375" />
    <path d="M -15.25747 -11.19914 L -15.25747 -10.22543" />
    <path d="M -10.25747 -11.19914 L -10.25747 -10.22543" />
</svg>