<svg version="1.1" xmlns="http://www.w3.org/2000/svg" viewBox="-19.329636514511638 -8.417207449249773 53.65624754735549 19.30788093384106" fill="none" stroke="black" stroke-width="0.6%" vector-effect="non-scaling-stroke">
    <path d="M -0.55911 9.81695 L -0.55911 -0.07372 L 0 0 L 33.32661 -5.49659 L 32.7675 -5.57031 L -0.55911 -0.07372" />
    <path d="M 0 9.89067 L 0 0" />
    <path d="M -0.55911 9.81695 L 0 9.89067 L 33.32661 4.39408 L 33.32661 -5.49659" />
    <path d="M -8.54096 -6.36718 L -8.54096 -6.56599 L -10.10264 -7.26643 L -14.99697 -7.41721 L -18.32964 -6.86755 L -16.76796 -6.16711 L -11.87362 -6.01633 L -8.54096 -6.56599" />
    <path d="M -18.32964 3.02313 L -18.32964 -6.86755" />
    <path d="M -16.76796 3.72356 L -16.76796 -6.16711" />
    <path d="M -18.32964 3.02313 L -16.76796 3.72356 L -11.87362 3.87434 L -10.98054 3.72705" />
    <path d="M -11.87362 3.87434 L -11.87362 -6.01633" />
    <path d="M -9.70792 -6.22532 A 5 0.73733 360 0 1 -0.98054 -5.73386 L -0.98054 4.15681" />
    <path d="M -0.98054 -5.73386 A 5 0.73733 360 0 1 -10.98054 -5.73386 L -10.98054 4.15681 A 5 0.73733 180 0 0 -0.98054 4.15681" />
    <path d="M -10.98054 -5.73386 A 5 0.73733 360 0 1 -9.70792 -6.22532" />
</svg>