<svg version="1.1" xmlns="http://www.w3.org/2000/svg" viewBox="-14.272031362531132 -1.9718254907009816 27.433116890565458 3.9456000088434857" fill="none" stroke="black" stroke-width="0.6%" vector-effect="non-scaling-stroke">
    <path d="M 3.55501 -0.50352 L 3.55501 -0.80052" />
    <path d="M -8.41352 -0.97182 L 3.55501 -0.80052" />
    <path d="M -13.27203 0.25555 L -7.43809 0.23607" />
    <path d="M -8.41352 -0.97182 L -13.27203 -0.74436 L 3.55501 -0.80052" />
    <path d="M -13.27203 0.25555 L -13.27203 -0.74436" />
    <path d="M 3.22693 0.94638 L 3.22693 -0.05353" />
    <path d="M 12.16108 -0.08335 A 5 0.06841 0 0 1 3.22693 -0.05353" />
    <path d="M 12.16108 0.91656 L 12.16108 -0.08335 L 10.59392 -0.10578" />
    <path d="M 3.22693 0.94638 A 5 0.06841 180 0 0 12.16108 0.91656" />
    <path d="M 3.86311 -0.08331 A 4 0.05473 180 0 0 10.59392 -0.10578" />
    <path d="M 3.86311 -0.08331 L 3.22693 -0.05353" />
    <path d="M -0.32807 0.747 L -0.32807 -0.25291" />
    <path d="M 8.60608 -0.28273 A 5 0.06841 0 0 1 -0.32807 -0.25291" />
    <path d="M 8.60608 -0.07262 L 8.60608 -0.28273 L 7.03892 -0.30516" />
    <path d="M -0.32807 0.747 A 5 0.06841 180 0 0 3.22693 0.77412" />
    <path d="M 0.3081 -0.28269 A 4 0.05473 180 0 0 7.03892 -0.30516" />
    <path d="M 0.3081 -0.28269 L -0.32807 -0.25291" />
    <path d="M -3.88308 0.54762 L -3.88308 -0.45229" />
    <path d="M 5.05107 -0.48211 A 5 0.06841 0 0 1 -3.88308 -0.45229" />
    <path d="M 5.05107 -0.272 L 5.05107 -0.48211 L 3.48391 -0.50454" />
    <path d="M -3.88308 0.54762 A 5 0.06841 180 0 0 -0.32807 0.57474" />
    <path d="M -3.24691 -0.48207 A 4 0.05473 180 0 0 3.48391 -0.50454" />
    <path d="M -3.24691 -0.48207 L -3.88308 -0.45229" />
    <path d="M -7.43809 0.34823 L -7.43809 -0.65167" />
    <path d="M 1.49606 -0.68149 A 5 0.06841 0 0 1 -7.43809 -0.65167" />
    <path d="M 1.49606 -0.47138 L 1.49606 -0.68149 L -0.0711 -0.70392" />
    <path d="M -7.43809 0.34823 A 5 0.06841 180 0 0 -3.88308 0.37535" />
    <path d="M -6.80192 -0.68146 A 4 0.05473 180 0 0 -0.0711 -0.70392" />
    <path d="M -6.80192 -0.68146 L -7.43809 -0.65167" />
</svg>