<svg version="1.1" xmlns="http://www.w3.org/2000/svg" viewBox="-19.35450532774447 -8.862217566844848 50.70726206646462 19.317088640497264" fill="none" stroke="black" stroke-width="0.6%" vector-effect="non-scaling-stroke">
    <path d="M -8.80368 2.63896 L -8.80368 -6.91364 L -9.90819 -7.64116 L -14.6836 -7.86222 L -18.3545 -7.35575 L -17.24999 -6.62823 L -12.47458 -6.40717 L -8.80368 -6.91364" />
    <path d="M -18.3545 2.53234 L -18.3545 -7.35575" />
    <path d="M -17.24999 3.25986 L -17.24999 -6.62823" />
    <path d="M -18.3545 2.53234 L -17.24999 3.25986 L -12.47458 3.48092 L -9.28955 3.04148" />
    <path d="M -12.47458 3.48092 L -12.47458 -6.40717" />
    <path d="M 18.3545 6.36694 L 17.34565 5.70242 L 30.35276 3.90786 L 29.84354 3.82571 L 16.83643 5.62027 L 12.47458 5.41836 L 8.80368 5.92483 L 9.81254 6.58935 L -3.19457 8.38391 L -2.68535 8.46606 L 10.32176 6.6715 L 14.6836 6.87341 L 18.3545 6.36694 Z" />
    <path d="M 18.3545 7.35575 L 18.3545 6.36694" />
    <path d="M 18.3545 6.55204 L 30.35276 4.89667 L 30.35276 3.90786" />
    <path d="M -3.19457 9.37272 L -2.68535 9.45487 L -2.68535 8.46606" />
    <path d="M -2.68535 9.45487 L 10.32176 7.6603 L 10.32176 6.6715" />
    <path d="M 10.32176 7.6603 L 14.6836 7.86222 L 14.6836 6.87341" />
    <path d="M 14.6836 7.86222 L 18.3545 7.35575" />
    <path d="M 8.80368 6.72854 L 8.80368 5.92483" />
    <path d="M -3.19457 9.37272 L -3.19457 8.38391" />
    <path d="M -8.48693 2.58608 A 2.5 0.37298 0 0 1 -4.28955 2.85991 L -4.28955 3.84872" />
    <path d="M -4.28955 2.85991 A 2.5 0.37298 0 0 1 -9.28955 2.85991 L -9.28955 3.84872 A 2.5 0.37298 180 0 0 -4.28955 3.84872" />
    <path d="M -9.28955 2.85991 A 2.5 0.37298 0 0 1 -8.48693 2.58608" />
</svg>