<svg version="1.1" xmlns="http://www.w3.org/2000/svg" viewBox="-18.639352878588348 -16.580288968576326 50.90253285721026 36.61587162115818" fill="none" stroke="black" stroke-width="0.6%" vector-effect="non-scaling-stroke">
    <path d="M -7.52334 6.3413 L -7.52334 -3.22525 L -8.49306 -4.65372 L -13.22582 -5.12339 L -16.98888 -4.16459 L -16.01916 -2.73611 L -11.2864 -2.26644 L -7.52334 -3.22525" />
    <path d="M -16.98888 5.40196 L -16.98888 -4.16459" />
    <path d="M -16.01916 6.83044 L -16.01916 -2.73611" />
    <path d="M -16.98888 5.40196 L -16.01916 6.83044 L -11.2864 7.3001 L -7.52334 6.3413" />
    <path d="M -11.2864 7.3001 L -11.2864 -2.26644" />
    <path d="M -14.89584 -10.52516 A 2.5 1.92285 243.16315 0 0 -14.45704 -10.66735 L -13.88679 -10.95586 A 2.5 1.92285 63.16315 0 1 -14.32559 -10.81368 A 2.5 1.92285 63.16315 0 1 -16.14405 -15.41734 A 2.5 1.92285 63.16315 0 1 -13.88679 -10.95586" />
    <path d="M -16.7143 -15.12882 A 2.5 1.92285 243.16315 0 0 -14.89584 -10.52516" />
    <path d="M 18.81527 14.15178 L 17.92954 12.84702 L 31.26318 9.44968 L 30.76933 9.2853 L 17.43569 12.68263 L 13.1128 12.25364 L 9.34974 13.21245 L 10.23547 14.51721 L -3.09816 17.91454 L -2.60431 18.07893 L 10.72932 14.68159 L 15.05222 15.11059 L 18.81527 14.15178 Z" />
    <path d="M 18.81527 15.10844 L 18.81527 14.15178" />
    <path d="M 18.4832 13.6626 L 31.26318 10.40634 L 31.26318 9.44968" />
    <path d="M 9.34974 14.1691 L 9.68182 14.65828" />
    <path d="M -3.09816 18.8712 L -2.60431 19.03558 L -2.60431 18.07893" />
    <path d="M -2.60431 19.03558 L 10.72932 15.63825 L 10.72932 14.68159" />
    <path d="M 10.72932 15.63825 L 15.05222 16.06724 L 15.05222 15.11059" />
    <path d="M 15.05222 16.06724 L 18.81527 15.10844" />
    <path d="M 9.34974 14.1691 L 9.34974 13.21245" />
    <path d="M -3.09816 18.8712 L -3.09816 17.91454" />
    <path d="M -16.7143 -15.12882 L -16.14405 -15.41734" />
</svg>